<svg xmlns="http://www.w3.org/2000/svg" xmlns:xlink="http://www.w3.org/1999/xlink" viewBox="0 0 21 23.94"><defs><style>.cls-1{fill:none;}.cls-2{clip-path:url(#clip-path);}.cls-3{fill:#454a92;}</style><clipPath id="clip-path"><rect class="cls-1" width="21" height="24"/></clipPath></defs><title>agenda_icon</title><g id="Layer_2" data-name="Layer 2"><g id="Layer_1-2" data-name="Layer 1"><g class="cls-2"><path class="cls-3" d="M18,12.56a.49.49,0,0,0,0-.21.76.76,0,0,0-.12-.19.52.52,0,0,0-.19-.11.54.54,0,0,0-.22,0h-2a.49.49,0,0,0-.21,0,.44.44,0,0,0-.19.12.42.42,0,0,0-.11.18.52.52,0,0,0,0,.21v2a.78.78,0,0,0,0,.22.76.76,0,0,0,.12.19.71.71,0,0,0,.18.12.59.59,0,0,0,.22,0h2a.58.58,0,0,0,.41-.17.6.6,0,0,0,.16-.41Zm0,5.92a.52.52,0,0,0-.17-.39.55.55,0,0,0-.4-.16h-2a.51.51,0,0,0-.39.16.55.55,0,0,0-.16.39v1.87a.78.78,0,0,0,0,.22.57.57,0,0,0,.12.18.55.55,0,0,0,.18.13.57.57,0,0,0,.22,0h2a.55.55,0,0,0,.57-.57Zm-5.91-5.92a.5.5,0,0,0-.05-.21.55.55,0,0,0-.12-.19.45.45,0,0,0-.19-.11.52.52,0,0,0-.21,0h-2a.52.52,0,0,0-.21,0,.45.45,0,0,0-.19.11.76.76,0,0,0-.12.19.5.5,0,0,0,0,.21v2a.57.57,0,0,0,.17.41.56.56,0,0,0,.4.17h2a.56.56,0,0,0,.4-.17.57.57,0,0,0,.17-.41Zm0,5.92a.57.57,0,0,0-.18-.39.51.51,0,0,0-.39-.16h-2a.53.53,0,0,0-.39.16.57.57,0,0,0-.18.39v1.87a.58.58,0,0,0,.17.41.59.59,0,0,0,.4.16h2a.59.59,0,0,0,.4-.16.58.58,0,0,0,.17-.41ZM6.17,12.56a.52.52,0,0,0,0-.21.55.55,0,0,0-.3-.3.52.52,0,0,0-.21,0H3.57a.57.57,0,0,0-.22,0,.42.42,0,0,0-.18.11.59.59,0,0,0-.13.19.49.49,0,0,0,0,.21v2a.57.57,0,0,0,.17.41.54.54,0,0,0,.4.17H5.44A.83.83,0,0,0,5.66,15a.61.61,0,0,0,.16-.16.4.4,0,0,0,.09-.21.55.55,0,0,0,0-.22Zm0,5.92a.55.55,0,0,0-.55-.55H3.57a.55.55,0,0,0-.4.16.56.56,0,0,0-.17.39v1.87a.58.58,0,0,0,.17.41.58.58,0,0,0,.4.16H5.44a.56.56,0,0,0,.48-.49ZM.57,9H20.43a.54.54,0,0,1,.4.17.56.56,0,0,1,.17.4V21.69a2.21,2.21,0,0,1-.66,1.59,2.25,2.25,0,0,1-1.59.66H2.25A2.25,2.25,0,0,1,0,21.69V9.56a.56.56,0,0,1,.17-.4A.54.54,0,0,1,.57,9Zm19.86-1.5H.57a.55.55,0,0,1-.4-.16A.61.61,0,0,1,0,6.94V5.25A2.25,2.25,0,0,1,.66,3.66,2.21,2.21,0,0,1,2.25,3H4.5V.57a.58.58,0,0,1,.16-.4A.58.58,0,0,1,5.07,0H7a.59.59,0,0,1,.33.2.57.57,0,0,1,.12.37V3h6V.57a.83.83,0,0,1,0-.22.71.71,0,0,1,.12-.18A.75.75,0,0,1,13.84,0a.57.57,0,0,1,.22,0h2a.58.58,0,0,1,.41.17.58.58,0,0,1,.16.4V3h2.15A2.25,2.25,0,0,1,21,5.25V6.94a.56.56,0,0,1-.17.39A.55.55,0,0,1,20.43,7.49Z"/></g></g></g></svg>