<svg width="24" height="24" viewBox="0 0 24 24" fill="none" xmlns="http://www.w3.org/2000/svg">
<path d="M12 0C5.37257 0 0 5.37257 0 12C0 18.6274 5.37257 24 12 24C18.6274 24 24 18.6274 24 12C24 5.37257 18.6274 0 12 0ZM7.28148 4.84709C8.68157 3.92266 10.3223 3.42943 12 3.42857C13.6802 3.4268 15.3233 3.92186 16.7229 4.85143L4.85143 16.7229C2.24309 12.7724 3.33102 7.45548 7.28148 4.84709ZM16.7185 19.1529C15.3184 20.0773 13.6778 20.5706 12 20.5714C10.3198 20.5732 8.6767 20.0781 7.27714 19.1486L19.1486 7.27714C21.7569 11.2276 20.669 16.5445 16.7185 19.1529Z" fill="white"/>
</svg>
