<svg xmlns="http://www.w3.org/2000/svg" xmlns:xlink="http://www.w3.org/1999/xlink" viewBox="0 0 10.65 12.17"><defs><style>.cls-1{fill:none;}.cls-2{clip-path:url(#clip-path);}.cls-3{fill:#808285;}</style><clipPath id="clip-path"><rect class="cls-1" width="10.65" height="12.17"/></clipPath></defs><title>Table Calendar Icon</title><g id="Layer_2" data-name="Layer 2"><g id="Layer_1-2" data-name="Layer 1"><g class="cls-2"><path class="cls-3" d="M9.13,6.37a.28.28,0,0,0-.29-.28h-1a.27.27,0,0,0-.28.28v1a.28.28,0,0,0,.28.29h1a.29.29,0,0,0,.29-.29Zm0,3a.29.29,0,0,0-.29-.28h-1a.28.28,0,0,0-.28.28v.95a.28.28,0,0,0,.28.29h1a.29.29,0,0,0,.29-.29Zm-3-3a.28.28,0,0,0-.29-.28h-1a.28.28,0,0,0-.29.28v1a.29.29,0,0,0,.29.29h1a.29.29,0,0,0,.29-.29Zm0,3a.29.29,0,0,0-.29-.28h-1a.29.29,0,0,0-.29.28v.95a.29.29,0,0,0,.29.29h1a.29.29,0,0,0,.29-.29Zm-3-3a.28.28,0,0,0-.28-.28H1.81a.28.28,0,0,0-.29.28v1a.29.29,0,0,0,.29.29h.95A.29.29,0,0,0,3,7.32Zm0,3a.29.29,0,0,0-.28-.28H1.81a.29.29,0,0,0-.29.28v.95a.29.29,0,0,0,.29.29h.95A.29.29,0,0,0,3,10.36ZM.29,4.56H10.36a.29.29,0,0,1,.29.29V11a1.14,1.14,0,0,1-1.14,1.14H1.14A1.14,1.14,0,0,1,0,11V4.85a.29.29,0,0,1,.29-.29M10.36,3.8H.29A.29.29,0,0,1,0,3.52V2.66A1.14,1.14,0,0,1,1.14,1.52H2.28V.29A.29.29,0,0,1,2.57,0h1A.29.29,0,0,1,3.8.29V1.52H6.85V.29A.28.28,0,0,1,7.13,0h1a.29.29,0,0,1,.29.29V1.52H9.51a1.14,1.14,0,0,1,1.14,1.14v.86a.29.29,0,0,1-.29.28"/></g></g></g></svg>