<svg xmlns="http://www.w3.org/2000/svg" xmlns:xlink="http://www.w3.org/1999/xlink" viewBox="0 0 14.91 12.17"><defs><style>.cls-1{fill:none;}.cls-2{clip-path:url(#clip-path);}.cls-3{fill:#808285;}</style><clipPath id="clip-path" transform="translate(0 0)"><rect class="cls-1" width="14.9" height="12.17"/></clipPath></defs><title>Table Chat Icon</title><g id="Layer_2" data-name="Layer 2"><g id="Layer_1-2" data-name="Layer 1"><g class="cls-2"><path class="cls-3" d="M7,4.4a.59.59,0,1,1,.59-.59A.59.59,0,0,1,7,4.4m-2.34,0a.59.59,0,1,1,.58-.59.59.59,0,0,1-.58.59m-2.35,0a.59.59,0,1,1,.59-.59.59.59,0,0,1-.59.59M4.69,0C2.1,0,0,1.71,0,3.81A3.37,3.37,0,0,0,1,6.2,4.52,4.52,0,0,1,0,8a.15.15,0,0,0,0,.16.16.16,0,0,0,.14.08,4.18,4.18,0,0,0,2.57-.94,5.52,5.52,0,0,0,2,.36c2.59,0,4.69-1.71,4.69-3.81S7.28,0,4.69,0" transform="translate(0 0)"/><path class="cls-3" d="M7.29,7.78a.59.59,0,1,1,.58.58.58.58,0,0,1-.58-.58m2.34,0a.59.59,0,1,1,.59.58.58.58,0,0,1-.59-.58m2.35,0a.59.59,0,1,1,.58.58A.58.58,0,0,1,12,7.78m-6.45,0c0,2.1,2.1,3.8,4.69,3.8a5.64,5.64,0,0,0,2-.35,4.18,4.18,0,0,0,2.58.94.13.13,0,0,0,.13-.09.14.14,0,0,0,0-.16,4.64,4.64,0,0,1-1-1.75,3.4,3.4,0,0,0,1.05-2.39c0-2.11-2.1-3.81-4.69-3.81S5.53,5.67,5.53,7.78" transform="translate(0 0)"/></g></g></g></svg>