<svg xmlns="http://www.w3.org/2000/svg" xmlns:xlink="http://www.w3.org/1999/xlink" viewBox="0 0 31.24 24"><defs><style>.cls-1{fill:none;}.cls-2{clip-path:url(#clip-path);}.cls-3{fill:#454a92;}</style><clipPath id="clip-path"><rect class="cls-1" x="0.05" width="31" height="24"/></clipPath></defs><title>chat_icon</title><g id="Layer_2" data-name="Layer 2"><g id="Layer_1-2" data-name="Layer 1"><g class="cls-2"><path class="cls-3" d="M14.6,8.68a1.26,1.26,0,0,1-.68-.2A1.19,1.19,0,0,1,13.47,8a1.1,1.1,0,0,1-.07-.67,1.15,1.15,0,0,1,.33-.6,1.35,1.35,0,0,1,.63-.32,1.32,1.32,0,0,1,.71.07,1.18,1.18,0,0,1,.55.43,1.07,1.07,0,0,1,.21.64,1.15,1.15,0,0,1-.36.83A1.3,1.3,0,0,1,14.6,8.68Zm-4.86,0a1.26,1.26,0,0,1-.69-.19A1.16,1.16,0,0,1,8.59,8a1.1,1.1,0,0,1-.08-.67,1.15,1.15,0,0,1,.33-.6,1.24,1.24,0,0,1,.63-.33,1.32,1.32,0,0,1,.71.07,1.18,1.18,0,0,1,.76,1.07,1.12,1.12,0,0,1-.35.82A1.26,1.26,0,0,1,9.74,8.68Zm-4.89,0a1.26,1.26,0,0,1-.68-.2A1.19,1.19,0,0,1,3.72,8a1,1,0,0,1-.07-.67A1.15,1.15,0,0,1,4,6.69a1.35,1.35,0,0,1,.63-.32,1.32,1.32,0,0,1,.71.07,1.24,1.24,0,0,1,.55.43,1.07,1.07,0,0,1,.21.64,1.15,1.15,0,0,1-.36.83A1.3,1.3,0,0,1,4.85,8.68ZM9.8,0C4.41,0,.05,3.37.05,7.51a6.29,6.29,0,0,0,.54,2.56,6.68,6.68,0,0,0,1.54,2.16A8.89,8.89,0,0,1,.05,15.78a.27.27,0,0,0,0,.15.3.3,0,0,0,.05.16.34.34,0,0,0,.12.12.33.33,0,0,0,.17,0A9,9,0,0,0,5.68,14.4a12.25,12.25,0,0,0,4.16.71c5.39,0,9.75-3.38,9.75-7.52S15.18,0,9.8,0Z"/><path class="cls-3" d="M15.2,15.34a1.16,1.16,0,0,1,.2-.65,1.24,1.24,0,0,1,.55-.44,1.36,1.36,0,0,1,.72-.07,1.31,1.31,0,0,1,.63.32,1.17,1.17,0,0,1,.34.6,1.14,1.14,0,0,1-.08.68,1.21,1.21,0,0,1-.46.52,1.35,1.35,0,0,1-.69.19,1.2,1.2,0,0,1-.85-.34A1.09,1.09,0,0,1,15.2,15.34Zm4.87,0a1.09,1.09,0,0,1,.2-.65,1.23,1.23,0,0,1,.54-.44,1.33,1.33,0,0,1,.71-.07,1.28,1.28,0,0,1,.64.31,1.21,1.21,0,0,1,.34.6,1.1,1.1,0,0,1-.07.67,1.16,1.16,0,0,1-.45.53,1.26,1.26,0,0,1-.68.2,1.5,1.5,0,0,1-.47-.08,1.36,1.36,0,0,1-.4-.25,1.31,1.31,0,0,1-.27-.38A1.12,1.12,0,0,1,20.07,15.34Zm4.89,0a1.08,1.08,0,0,1,.19-.65,1.24,1.24,0,0,1,.55-.44,1.36,1.36,0,0,1,.72-.07,1.31,1.31,0,0,1,.63.32,1.17,1.17,0,0,1,.34.6,1.15,1.15,0,0,1-.54,1.2,1.35,1.35,0,0,1-.69.19,1.23,1.23,0,0,1-.82-.35,1.12,1.12,0,0,1-.34-.8Zm-13.37,0c0,4.14,4.36,7.5,9.75,7.5a12.48,12.48,0,0,0,4.16-.69A9,9,0,0,0,30.86,24,.26.26,0,0,0,31,24a.47.47,0,0,0,.15-.29.21.21,0,0,0-.05-.15,9.15,9.15,0,0,1-2.08-3.45,6.8,6.8,0,0,0,1.59-2.15,6.53,6.53,0,0,0,.6-2.57c0-4.16-4.37-7.51-9.76-7.51s-9.93,3.35-9.93,7.51"/></g></g></g></svg>