<svg xmlns="http://www.w3.org/2000/svg" xmlns:xlink="http://www.w3.org/1999/xlink" viewBox="0 0 78.04 78.06"><defs><style>.cls-1{fill:none;}.cls-2{clip-path:url(#clip-path);}.cls-3{fill:#57bb6e;}.cls-4{fill:#00ab5d;}.cls-5{fill:#fef4f5;}.cls-6{fill:#deeaf0;}</style><clipPath id="clip-path" transform="translate(-0.01)"><rect class="cls-1" width="78.06" height="78.06"/></clipPath></defs><title>Check_Popup_Icon</title><g id="Layer_2" data-name="Layer 2"><g id="Layer_1-2" data-name="Layer 1"><g class="cls-2"><path class="cls-3" d="M39,78.06A39,39,0,1,0,0,39,39,39,0,0,0,39,78.06Z" transform="translate(-0.01)"/><path class="cls-4" d="M39,0H39V78.06H39A39,39,0,0,0,39,0Z" transform="translate(-0.01)"/><path class="cls-5" d="M17,39.81,32.75,55.59a1.77,1.77,0,0,0,2.5,0l25.9-25.91a1.76,1.76,0,0,0,0-2.49l-4.71-4.72a1.76,1.76,0,0,0-2.49,0L35.1,41.31a1.76,1.76,0,0,1-2.49,0l-8.45-8.44a1.75,1.75,0,0,0-2.45,0L17,37.28A1.76,1.76,0,0,0,17,39.81Z" transform="translate(-0.01)"/><path class="cls-6" d="M56.44,22.47a1.76,1.76,0,0,0-2.49,0l-15,15V51.85L61.15,29.68a1.76,1.76,0,0,0,0-2.49Z" transform="translate(-0.01)"/></g></g></g></svg>