<svg xmlns="http://www.w3.org/2000/svg" viewBox="0 0 39.04 46.84"><defs><style>.cls-1{fill:#ed1c24;}</style></defs><title>Delete_User_Icon</title><g id="Layer_2" data-name="Layer 2"><g id="Layer_1-2" data-name="Layer 1"><path class="cls-1" d="M2,11.71V46.84H37.08V11.71ZM11.71,39a2,2,0,0,1-3.9,0V19.52a2,2,0,0,1,3.9,0Zm9.76,0a2,2,0,1,1-3.9,0V19.52a1.95,1.95,0,0,1,3.9,0Zm9.76,0a2,2,0,0,1-3.91,0V19.52a2,2,0,0,1,3.91,0ZM39,3.9V7.81H0V3.9H11.15c1.75,0,3.18-2.14,3.18-3.9H24.7c0,1.76,1.43,3.9,3.19,3.9Z"/></g></g></svg>