<svg width="20" height="24" viewBox="0 0 20 24" fill="none" xmlns="http://www.w3.org/2000/svg">
<path d="M1 6V24H19V6H1ZM6 20C6 20.552 5.552 21 5 21C4.448 21 4 20.552 4 20V10C4 9.448 4.448 9 5 9C5.552 9 6 9.448 6 10V20ZM11 20C11 20.552 10.552 21 10 21C9.448 21 9 20.552 9 20V10C9 9.448 9.448 9 10 9C10.552 9 11 9.448 11 10V20ZM16 20C16 20.552 15.552 21 15 21C14.448 21 14 20.552 14 20V10C14 9.448 14.448 9 15 9C15.552 9 16 9.448 16 10V20ZM20 2V4H0V2H5.711C6.611 2 7.342 0.901 7.342 0H12.657C12.657 0.901 13.387 2 14.288 2H20Z" fill="white"/>
</svg>
