<svg xmlns="http://www.w3.org/2000/svg" viewBox="0 0 27.11 25.31"><defs><style>.cls-1{fill:none;stroke:#fff;stroke-width:4.28px;}.cls-2{fill:#fff;}</style></defs><title>graph_icon</title><g id="Layer_2" data-name="Layer 2"><g id="Layer_1-2" data-name="Layer 1"><path class="cls-1" d="M9.71,25.31v-13"/><path class="cls-1" d="M17.29,25.31V14"/><path class="cls-1" d="M25,25.31V11.12"/><path class="cls-2" d="M26.16,0H20.21a1.18,1.18,0,0,0-.87,2L21,3.6,17.29,7.2,13.61,3.6a1.58,1.58,0,0,0-2.27,0L7.66,7.09a.69.69,0,0,0,0,1.06L8.85,9.32a.86.86,0,0,0,1.19,0L12.42,7l3.68,3.6a1.6,1.6,0,0,0,2.27,0l4.87-4.77,1.62,1.59a1.16,1.16,0,0,0,2.06-.74V.74A.74.74,0,0,0,26.16,0Z"/><path class="cls-1" d="M2.14,25.31V16.09"/></g></g></svg>