<svg xmlns="http://www.w3.org/2000/svg" xmlns:xlink="http://www.w3.org/1999/xlink" viewBox="0 0 13.21 12.31"><defs><style>.cls-1{fill:none;}.cls-2{clip-path:url(#clip-path);}.cls-3{fill:#ed1c24;}</style><clipPath id="clip-path" transform="translate(0 0)"><rect class="cls-1" width="13.21" height="12.31"/></clipPath></defs><title>Asset 29</title><g id="Layer_2" data-name="Layer 2"><g id="Layer_1-2" data-name="Layer 1"><g class="cls-2"><path class="cls-3" d="M10.11,9.8a.14.14,0,0,1-.14.09H3.24a.16.16,0,0,1-.15-.09.15.15,0,0,1,0-.17A4.47,4.47,0,0,0,4.45,6.45v-.9a2.16,2.16,0,1,1,4.31,0v.9a4.47,4.47,0,0,0,1.32,3.18.14.14,0,0,1,0,.17M6.6,11.42A.64.64,0,0,1,6,10.78H7.25a.64.64,0,0,1-.65.64m3.05-5v-.9a3,3,0,0,0-2.31-3V1.68a.74.74,0,1,0-1.47,0v.91a3,3,0,0,0-2.31,3v.9A3.61,3.61,0,0,1,2.5,9a1,1,0,0,0,.74,1.78H5.07a1.53,1.53,0,0,0,3.06,0H10A1,1,0,0,0,10.71,9,3.61,3.61,0,0,1,9.65,6.45" transform="translate(0 0)"/><path class="cls-3" d="M2.55,6.44a.44.44,0,0,0,.27-.56,2.76,2.76,0,0,1,1.72-3.5.44.44,0,0,0,.28-.56.45.45,0,0,0-.56-.28A3.66,3.66,0,0,0,2,6.16a.45.45,0,0,0,.42.3.39.39,0,0,0,.15,0" transform="translate(0 0)"/><path class="cls-3" d="M3.85.86A.43.43,0,0,0,4.12.3.45.45,0,0,0,3.56,0,5.27,5.27,0,0,0,.28,6.69.45.45,0,0,0,.7,7L.84,7a.44.44,0,0,0,.28-.57A4.37,4.37,0,0,1,3.85.86" transform="translate(0 0)"/><path class="cls-3" d="M9,1.54a.44.44,0,0,0-.56.28.44.44,0,0,0,.28.56,2.78,2.78,0,0,1,1.72,3.5.44.44,0,0,0,.27.56.36.36,0,0,0,.14,0,.43.43,0,0,0,.42-.3A3.64,3.64,0,0,0,9,1.54" transform="translate(0 0)"/><path class="cls-3" d="M12.67,2.68A5.25,5.25,0,0,0,9.65,0,.45.45,0,0,0,9.09.3a.44.44,0,0,0,.27.56A4.38,4.38,0,0,1,12.09,6.4a.45.45,0,0,0,.27.57l.15,0a.46.46,0,0,0,.42-.3,5.22,5.22,0,0,0-.26-4" transform="translate(0 0)"/></g></g></g></svg>