<svg xmlns="http://www.w3.org/2000/svg" viewBox="0 0 25.22 25.35"><defs><style>.cls-1{fill:#fff;}</style></defs><title>phone_icon</title><g id="Layer_2" data-name="Layer 2"><g id="Layer_1-2" data-name="Layer 1"><path class="cls-1" d="M24.26,1.23,19.1,0a1.09,1.09,0,0,0-1.32.72l-2.4,5.52a1,1,0,0,0,.36,1.32l3,2.4A18.79,18.79,0,0,1,10,18.75l-2.4-2.88a1.14,1.14,0,0,0-1.32-.36L.74,17.91A1.29,1.29,0,0,0,0,19.23l1.2,5.16a1.29,1.29,0,0,0,1.2,1,22.79,22.79,0,0,0,22.8-22.8A1.21,1.21,0,0,0,24.26,1.23Z"/></g></g></svg>