<svg width="28" height="24" viewBox="0 0 28 24" fill="none" xmlns="http://www.w3.org/2000/svg">
<path d="M16 0C9.37331 0 4 5.37331 4 12H0L5.33331 17.3333L10.6667 12H6.66669C6.66669 6.84669 10.8467 2.66669 16 2.66669C21.1533 2.66669 25.3333 6.84669 25.3333 12C25.3333 17.1533 21.1533 21.3333 16 21.3333C13.98 21.3333 12.12 20.6866 10.5867 19.5933L8.7 21.5067C10.7267 23.0667 13.2533 24 16 24C22.6267 24 28 18.6267 28 12C28 5.37331 22.6267 0 16 0Z" fill="white"/>
<path d="M18.6674 12C18.6674 10.5267 17.4741 9.33329 16.0007 9.33329C14.5273 9.33329 13.334 10.5267 13.334 12C13.334 13.4733 14.5273 14.6667 16.0007 14.6667C17.4741 14.6667 18.6674 13.4733 18.6674 12Z" fill="white"/>
</svg>
