<svg width="24" height="24" viewBox="0 0 24 24" fill="none" xmlns="http://www.w3.org/2000/svg">
<g clip-path="url(#clip0)">
<path d="M9 19H5V17H9V19ZM11.946 14.964L15.053 18.069L10.941 19L11.946 14.964ZM24 9.125L16.102 17.121L12.9 13.919L20.798 5.924L24 9.125ZM18 18.045V22H2V2H9.362C13.518 2 12 8 12 8C12 8 14.313 7.365 16.067 7.867L18.019 5.891C15.805 3.084 12.257 0 10.189 0H0V24H20V16.02L18 18.045Z" fill="white"/>
</g>
<defs>
<clipPath id="clip0">
<rect width="24" height="24" fill="white"/>
</clipPath>
</defs>
</svg>
