<svg width="20" height="24" viewBox="0 0 20 24" fill="none" xmlns="http://www.w3.org/2000/svg">
<path d="M14.8634 18.161L12.3171 15.6098C12.901 14.8022 13.1608 13.8051 13.0451 12.8153C12.9294 11.8256 12.4467 10.9152 11.6923 10.2641C10.9379 9.61297 9.96678 9.26851 8.97074 9.29874C7.97469 9.32897 7.02622 9.73171 6.31272 10.4274C5.59922 11.123 5.17261 12.061 5.11718 13.056C5.06174 14.0509 5.38152 15.0305 6.01332 15.8011C6.64512 16.5717 7.54298 17.0773 8.5295 17.218C9.51602 17.3587 10.5194 17.1243 11.3415 16.561L13.8976 19.1171L14.8634 18.161ZM6.27318 13.2829C6.27221 12.7251 6.43675 12.1795 6.74598 11.7152C7.0552 11.2509 7.49521 10.8887 8.01032 10.6746C8.52544 10.4604 9.0925 10.4039 9.63975 10.5121C10.187 10.6204 10.6898 10.8885 11.0847 11.2826C11.4795 11.6768 11.7485 12.1791 11.8577 12.7262C11.9669 13.2733 11.9113 13.8404 11.698 14.3559C11.4848 14.8714 11.1234 15.312 10.6596 15.6221C10.1959 15.9321 9.65054 16.0976 9.09269 16.0976C8.3453 16.0963 7.6289 15.7988 7.10042 15.2703C6.57194 14.7418 6.27447 14.0254 6.27318 13.2781V13.2829Z" fill="white"/>
<path fill-rule="evenodd" clip-rule="evenodd" d="M20 24H0V0H10.1902C13.3512 0 20 7.22439 20 9.61463V24ZM9.36098 2H2V22H18V10.4585C18 6.35122 12 8.01951 12 8.01951C12 8.01951 13.5171 2 9.36098 2Z" fill="white"/>
</svg>
